:FULLY-SPECIFIED
:FORCE-ALL-JOINTS-BE-3DOF
:DEGREES
204
root 4.90508 15.07 -25.4013 7.06333 -1.23212 5.85541
lfemur 7.72223 -1.02653 0.529543
ltibia 6.0921 0 0
lfoot -35.495 -13.4382 0
ltoes 47.2149 0 0
rfemur -30.812 -19.1209 -8.88978
rtibia 50.0195 0 0
rfoot -26.5142 17.4177 0
rtoes 60.1991 0 0
lowerback -3.7088 -1.7481 -0.404149
upperback -0.475292 -2.21194 -7.80327
thorax 1.30232 -1.10726 -8.04152
lowerneck -11.8098 0.405116 6.66397
upperneck 3.68452 -0.64997 2.67748
head 3.29038 -0.0951756 -0.336044
lclavicle -7.26434e-15 -2.89031e-14 0
lhumerus -58.5655 -46.6449 115.314
lradius 54.1482 0 0
lwrist 27.7319 0 0
lhand 39.6789 31.613 0
lfingers 7.12502 0 0
lthumb 62.1319 42.9695 0
rclavicle -7.26434e-15 -2.89031e-14 0
rhumerus -4.51031 -3.21119 -10.2453
rradius 57.1539 0 0
rwrist -25.7796 0 0
rhand -10.5136 -43.6101 0
rfingers 7.12502 0 0
rthumb 15.4889 -436.592 0
205
root 4.91698 15.0641 -25.3885 7.11508 -0.928332 5.97401
lfemur 7.76197 -0.903785 0.478525
ltibia 6.19247 0 0
lfoot -35.4662 -13.5755 0
ltoes 47.4313 0 0
rfemur -30.9153 -19.154 -8.733
rtibia 49.9372 0 0
rfoot -26.4633 17.3599 0
rtoes 60.3302 0 0
lowerback -3.65848 -1.77725 -0.456972
upperback -0.440357 -2.25376 -7.82857
thorax 1.31326 -1.12841 -8.0355
lowerneck -11.7809 0.368201 6.63032
upperneck 3.67805 -0.696826 2.72791
head 3.28954 -0.118175 -0.315521
lclavicle -6.83583e-15 -2.919e-14 0
lhumerus -58.5261 -46.7959 115.325
lradius 54.2065 0 0
lwrist 27.7578 0 0
lhand 39.6944 31.6152 0
lfingers 7.12502 0 0
lthumb 62.1474 42.9747 0
rclavicle -6.83583e-15 -2.919e-14 0
rhumerus -4.63002 -2.84062 -10.4071
rradius 57.3138 0 0
rwrist -25.7011 0 0
rhand -10.4464 -43.561 0
rfingers 7.12502 0 0
rthumb 15.5537 -440.154 0
206
root 4.93098 15.0585 -25.3767 7.16933 -0.594993 6.09637
lfemur 7.78965 -0.775101 0.419309
ltibia 6.31353 0 0
lfoot -35.429 -13.7191 0
ltoes 47.6504 0 0
rfemur -31.0254 -19.1843 -8.55976
rtibia 49.8581 0 0
rfoot -26.3913 17.3015 0
rtoes 60.4368 0 0
lowerback -3.60335 -1.80691 -0.512689
upperback -0.403701 -2.29647 -7.85119
thorax 1.32358 -1.15002 -8.02482
lowerneck -11.7497 0.325948 6.5922
upperneck 3.66885 -0.750213 2.78103
head 3.28777 -0.144502 -0.293596
lclavicle -6.3686e-15 -2.94856e-14 0
lhumerus -58.4792 -46.9399 115.328
lradius 54.2661 0 0
lwrist 27.7803 0 0
lhand 39.6993 31.6082 0
lfingers 7.12502 0 0
lthumb 62.1534 42.9773 0
rclavicle -6.3686e-15 -2.94856e-14 0
rhumerus -4.77394 -2.44429 -10.6047
rradius 57.4809 0 0
rwrist -25.6085 0 0
rhand -10.3775 -43.4952 0
rfingers 7.12502 0 0
rthumb 15.6201 -443.732 0
207
root 4.94703 15.0532 -25.3657 7.22603 -0.232803 6.22239
lfemur 7.80547 -0.640618 0.352062
ltibia 6.45487 0 0
lfoot -35.3838 -13.8688 0
ltoes 47.8722 0 0
rfemur -31.1423 -19.2117 -8.37039
rtibia 49.7821 0 0
rfoot -26.2986 17.2426 0
rtoes 60.5193 0 0
lowerback -3.5435 -1.83705 -0.571232
upperback -0.365365 -2.34006 -7.87117
thorax 1.33327 -1.17208 -8.0096
lowerneck -11.7163 0.278476 6.54971
upperneck 3.65698 -0.809988 2.83679
head 3.2851 -0.174081 -0.270301
lclavicle -5.86355e-15 -2.97895e-14 0
lhumerus -58.4252 -47.0769 115.322
lradius 54.3271 0 0
lwrist 27.7993 0 0
lhand 39.6936 31.5923 0
lfingers 7.12502 0 0
lthumb 62.15 42.9774 0
rclavicle -5.86355e-15 -2.97895e-14 0
rhumerus -4.94159 -2.02277 -10.8373
rradius 57.6551 0 0
rwrist -25.5019 0 0
rhand -10.307 -43.413 0
rfingers 7.12502 0 0
rthumb 15.6879 -447.326 0
208
root 4.96508 15.0483 -25.3557 7.2851 0.157539 6.35196
lfemur 7.80964 -0.500477 0.276951
ltibia 6.6161 0 0
lfoot -35.3306 -14.0245 0
ltoes 48.0964 0 0
rfemur -31.2657 -19.2364 -8.16522
rtibia 49.7093 0 0
rfoot -26.1857 17.1831 0
rtoes 60.5781 0 0
lowerback -3.47903 -1.86766 -0.63253
upperback -0.325388 -2.38447 -7.88855
thorax 1.34236 -1.19457 -7.98991
lowerneck -11.6807 0.225901 6.50295
upperneck 3.64249 -0.876006 2.8951
head 3.28155 -0.206841 -0.24567
lclavicle -5.32161e-15 -3.01014e-14 0
lhumerus -58.3639 -47.2071 115.308
lradius 54.3892 0 0
lwrist 27.815 0 0
lhand 39.6777 31.5674 0
lfingers 7.12502 0 0
lthumb 62.1374 42.975 0
rclavicle -5.32161e-15 -3.01014e-14 0
rhumerus -5.1325 -1.57664 -11.1044
rradius 57.8362 0 0
rwrist -25.3816 0 0
rhand -10.235 -43.3148 0
rfingers 7.12502 0 0
rthumb 15.7572 -450.935 0
209
root 4.98509 15.0436 -25.3465 7.34647 0.575336 6.48498
lfemur 7.80235 -0.354815 0.194142
ltibia 6.79681 0 0
lfoot -35.2695 -14.186 0
ltoes 48.323 0 0
rfemur -31.3955 -19.2584 -7.94458
rtibia 49.6396 0 0
rfoot -26.0529 17.123 0
rtoes 60.6136 0 0
lowerback -3.41004 -1.8987 -0.696515
upperback -0.28381 -2.42967 -7.90339
thorax 1.35084 -1.21747 -7.96584
lowerneck -11.6431 0.168342 6.45201
upperneck 3.62543 -0.948123 2.95591
head 3.27714 -0.242708 -0.219735
lclavicle -4.74367e-15 -3.04212e-14 0
lhumerus -58.2958 -47.3304 115.286
lradius 54.4525 0 0
lwrist 27.8274 0 0
lhand 39.6516 31.5339 0
lfingers 7.12502 0 0
lthumb 62.1157 42.9703 0
rclavicle -4.74367e-15 -3.04212e-14 0
rhumerus -5.34619 -1.10651 -11.4052
rradius 58.024 0 0
rwrist -25.248 0 0
rhand -10.1616 -43.2009 0
rfingers 7.12502 0 0
rthumb 15.828 -454.558 0
210
root 5.00702 15.0392 -25.3381 7.41009 1.01989 6.62133
lfemur 7.78379 -0.203773 0.103802
ltibia 6.9966 0 0
lfoot -35.2007 -14.353 0
ltoes 48.5517 0 0
rfemur -31.5316 -19.2778 -7.70881
rtibia 49.5731 0 0
rfoot -25.9006 17.0624 0
rtoes 60.6264 0 0
lowerback -3.33663 -1.93017 -0.763117
upperback -0.240671 -2.47563 -7.91571
thorax 1.35873 -1.24076 -7.93749
lowerneck -11.6034 0.105914 6.39701
upperneck 3.60587 -1.02619 3.01914
head 3.27187 -0.281608 -0.19253
lclavicle -4.13064e-15 -3.07486e-14 0
lhumerus -58.2208 -47.4471 115.255
lradius 54.517 0 0
lwrist 27.8365 0 0
lhand 39.6155 31.4918 0
lfingers 7.12502 0 0
lthumb 62.085 42.9631 0
rclavicle -4.13064e-15 -3.07486e-14 0
rhumerus -5.58219 -0.612936 -11.739
rradius 58.2183 0 0
rwrist -25.1012 0 0
rhand -10.0867 -43.0715 0
rfingers 7.12502 0 0
rthumb 15.9001 -458.195 0
